<svg xmlns="http://www.w3.org/2000/svg" viewBox="0 0 240 240" width="240" height="240" version="1.1" xmlns:xlink="http://www.w3.org/1999/xlink" transform="matrix(1.8369701987210297e-16,1,1,-1.8369701987210297e-16,0,0)">
  <rect width="240" height="240" rx="56" fill="#12192A"></rect>
  <g transform="translate(120,120) scale(1.55) translate(-297.8,-306.8)" fill="#6CC6AE">
    <path d="M322.89 311.25C323.97 312.94 325.53 314.26 327.22 315.34C331.18 317.62 331.06 322.19 330.58 326.63C331.90 324.35 332.26 321.70 331.78 319.06C331.30 316.78 330.10 315.22 328.18 314.02C324.09 311.49 322.77 308.85 323.01 304.04L320.84 307.05C320.24 307.89 319.64 307.65 318.68 307.53L316.27 307.17C315.55 306.08 314.35 306.93 314.35 305.96C314.23 304.76 313.63 304.16 312.55 303.92C309.91 303.08 308.34 300.80 308.22 298.03C308.10 293.23 311.71 289.03 316.51 289.03C321.44 288.91 324.93 293.11 324.57 297.91C325.17 297.79 325.77 297.19 325.89 296.59L326.01 294.55C331.18 300.31 335.15 306.93 337.79 314.26C335.27 323.02 330.82 331.68 323.49 337.33C315.67 343.33 305.34 344.18 297.64 337.45C294.64 334.80 291.39 333.12 287.30 332.64C284.54 332.28 281.89 331.68 279.25 330.48C273.24 327.95 269.03 322.55 268.31 315.94C267.47 308.13 271.56 300.07 278.65 296.96C282.61 299.12 284.18 303.92 285.50 308.13C287.06 313.30 288.51 319.19 292.48 323.02C297.28 327.59 304.01 327.11 309.43 323.26C307.14 323.99 304.85 324.47 302.45 324.47C293.08 324.59 290.19 315.34 288.03 307.41C286.82 302.96 285.26 298.51 281.17 296.12C284.78 295.16 287.90 296.59 290.43 298.88C291.75 300.07 293.32 300.80 295.00 300.80L298.24 300.56C300.04 300.56 298.96 302.48 299.92 303.20C300.28 303.44 300.89 303.44 301.61 303.56C301.85 303.68 301.85 304.76 301.85 305.24L302.81 304.76C303.53 304.40 303.05 306.69 304.97 307.17C305.94 307.41 306.66 308.25 306.42 309.33C306.18 310.29 305.58 311.25 304.97 312.10L302.69 314.86C302.33 315.22 302.21 315.82 302.09 316.54C309.06 320.87 317.71 317.26 322.89 311.25ZM318.08 308.49C319.64 309.21 320.84 308.97 321.80 307.41L322.41 309.81C317.59 314.98 310.75 318.70 303.77 315.70L306.30 312.58C307.02 311.73 307.50 310.77 307.74 309.81C308.22 308.01 307.14 306.57 305.46 306.08C303.89 305.60 304.97 303.80 302.93 303.68L302.57 302.72C302.33 302.12 300.89 302.48 300.64 302.12C300.40 301.40 300.77 300.68 300.16 299.83C299.92 299.48 299.20 299.24 298.72 299.24L295.60 299.36C293.68 299.48 292.24 298.63 290.91 297.44C284.78 291.55 275.89 294.43 270.71 300.31C265.66 305.96 264.10 313.90 266.63 321.11C268.43 326.03 272.04 329.76 276.61 332.16C279.85 333.84 283.09 334.44 286.70 334.93C289.95 335.29 292.84 336.49 295.36 338.65L299.44 341.78C307.02 346.70 316.27 345.38 323.73 340.57C332.74 334.80 338.15 324.47 340.80 314.14C338.87 308.37 336.11 303.08 332.50 298.16C329.50 294.19 326.13 290.83 321.80 288.30C318.92 286.62 315.55 286.50 312.55 287.94C308.22 289.99 305.82 294.79 306.78 299.48C307.38 302.36 309.55 304.28 312.19 305.00C313.99 305.48 312.55 308.01 315.19 307.65L316.03 308.37L318.08 308.49Z"></path>
    <path d="M306.90 273.77L306.90 270.40L303.29 270.40L303.29 266.92L300.05 266.92L300.05 270.40L296.44 270.40L296.44 273.77L300.05 273.77L300.05 277.25L303.29 277.25L303.29 273.77L306.90 273.77Z"></path>
    <path d="M264.83 288.06C270.59 280.13 279.25 274.97 288.87 273.41L288.87 270.16C274.44 272.33 262.55 282.29 257.73 296.00C255.33 302.84 254.85 310.05 256.29 317.02C258.58 327.47 265.07 336.73 274.44 341.90C266.51 336.13 260.74 328.19 258.58 318.59C256.17 308.01 258.34 296.96 264.83 288.06Z"></path>
    <path d="M331.07 291.43C333.23 294.07 335.03 296.72 336.83 299.60C335.03 292.87 331.55 286.98 326.98 281.93C323.25 278.21 319.16 275.21 314.36 273.05L314.48 276.41C318.92 278.45 322.77 281.33 326.01 284.82C327.94 286.98 329.50 289.03 331.07 291.43Z"></path>
  </g>
</svg>